<?xml version="1.0" encoding="utf-8"?>
<!-- Generator: Adobe Illustrator 18.1.1, SVG Export Plug-In . SVG Version: 6.00 Build 0)  -->
<svg version="1.1" id="Layer_1" xmlns="http://www.w3.org/2000/svg" xmlns:xlink="http://www.w3.org/1999/xlink" x="0px" y="0px"
	 viewBox="0 0 17.5 17.5" enable-background="new 0 0 17.5 17.5" xml:space="preserve">
<g>
	<defs>
		<rect id="SVGID_1_" width="17.5" height="17.5"/>
	</defs>
	<clipPath id="SVGID_2_">
		<use xlink:href="#SVGID_1_"  overflow="visible"/>
	</clipPath>
	<path clip-path="url(#SVGID_2_)" fill="currentColor" d="M6.5,0C10.1,0,13,2.9,13,6.5c0,1.6-0.6,3.1-1.6,4.2l0.3,0.3h0.8l5,5L16,17.5l-5-5v-0.8
		l-0.3-0.3c-1.1,1-2.6,1.6-4.2,1.6C2.9,13,0,10.1,0,6.5S2.9,0,6.5,0 M6.5,2C4,2,2,4,2,6.5S4,11,6.5,11S11,9,11,6.5S9,2,6.5,2"/>
</g>
</svg>
