<?xml version="1.0" encoding="utf-8"?>
<!-- Generator: Adobe Illustrator 19.2.1, SVG Export Plug-In . SVG Version: 6.00 Build 0)  -->
<svg version="1.1" id="Layer_1" xmlns="http://www.w3.org/2000/svg" xmlns:xlink="http://www.w3.org/1999/xlink" x="0px" y="0px"
	 viewBox="0 0 64 64" style="enable-background:new 0 0 64 64;" xml:space="preserve">
<path fill="currentColor" d="M64,47.9c-0.2,1.1-1.1,1.7-2.7,1.9c-1.6,0.2-3.3,0.2-5,0c-1.7-0.2-3.1-0.1-4.3,0.3h-0.2c-2.4-0.4-4.9-2.1-7.4-5
	c-0.1-0.1-0.5-0.5-1.1-1.4C42.6,43,42,42.4,41.4,42c-0.5-0.4-1.1-0.5-1.7-0.4c-0.8,0.1-1.4,0.6-1.6,1.4c-0.2,0.9-0.4,1.9-0.4,3.1
	c0,1.2-0.2,2.1-0.6,2.6c-0.6,1.2-3.1,1.5-7.6,1.1c-3.9-0.4-7.1-1.5-9.6-3.3c-2.5-1.8-4.9-4.2-7.3-7.2c-0.2-0.2-0.5-0.6-0.9-1.1
	c-0.2-0.2-0.2-0.3-0.2-0.4c-0.2-0.2-0.5-0.5-0.6-0.9c-0.2-0.2-0.2-0.3-0.2-0.4c-0.1-0.1-0.3-0.4-0.6-0.9l-0.2-0.2
	c-0.1-0.2-0.2-0.4-0.4-0.7c-0.2-0.3-0.3-0.5-0.4-0.6l-0.7-1.1C8.1,32.9,8,32.8,8,32.7c-0.1-0.1-0.2-0.2-0.3-0.4
	c-0.1-0.2-0.2-0.4-0.3-0.4c0-0.1,0-0.2-0.1-0.2v-0.1c-0.1-0.1-0.2-0.2-0.3-0.4c-0.1-0.2-0.2-0.4-0.3-0.4c0-0.1,0-0.2-0.1-0.2v-0.1
	c-1.2-2.1-2.7-4.7-4.2-7.9c-1.5-3-2.2-5.2-2.2-6.6c0.6-0.5,2.6-0.7,6-0.7c3.8,0,6,0.1,6.5,0.4c0.2,0.1,0.5,0.4,0.7,0.8
	c0.2,0.5,0.5,1.1,0.9,1.8c0.3,0.7,0.6,1.2,0.7,1.5c0.7,1.6,1.7,3.6,3.2,6.1c0.2,0.2,0.3,0.4,0.4,0.5c0,0.1,0,0.2,0.1,0.2
	c0,0.1,0.1,0.2,0.2,0.4l0.1,0.1l0.2,0.5l0.1,0.1c0.1,0.1,0.2,0.2,0.2,0.3c0.1,0.1,0.1,0.2,0.1,0.3c0.1,0.1,0.3,0.3,0.6,0.7
	c0.3,0.4,0.5,0.7,0.7,0.9c0.2,0.2,0.4,0.5,0.7,0.7c0.3,0.3,0.6,0.5,0.9,0.6c0.3,0.1,0.6,0.1,0.8,0.1C24.5,31,25,29,25,25.1v-0.4
	c0.2-3.3-0.1-5.6-0.7-6.9c-0.2-0.5-0.8-0.9-1.7-1.3s-1.4-0.6-1.6-0.8c0.8-1.6,3.4-2.4,7.6-2.4c4.9,0,7.7,0.5,8.4,1.6
	c0.3,0.7,0.5,1.5,0.6,2.4c0.1,0.9,0.1,2-0.1,3.4c-0.1,1.3-0.2,2.2-0.2,2.7c-0.1,0.2-0.1,0.5-0.1,0.9v0.1v1v0.2v0.2v0.1v0.1l-0.1,0.1
	v0.1v0.1v0.1v0.1v0.1c0,0.1,0,0.1,0.1,0.1v0.2v0.2v0.2v0.1v0.1v0.1v0.1v0.1c0.1,0,0.1,0,0.1,0.1v0.1v0.1v0.1c0.1,0,0.1,0,0.1,0.1
	v0.1v0.1l0.1,0.1v0.2h0.1v0.1v0.1c0.1,0,0.1,0,0.1,0.1c0,0.1,0,0.1,0.1,0.1v0.1l0.1,0.1c0.1,0,0.1,0,0.1,0.1l0.1,0.1l0.1,0.1h0.1
	v0.1c0.1,0,0.2,0,0.2,0.1c0.9-0.2,2-1.2,3.4-3c0.1-0.2,0.2-0.3,0.4-0.5l0.1-0.1c0-0.1,0-0.2,0.1-0.2l0.2-0.2c0-0.1,0-0.2,0.1-0.2
	v-0.1l0.1-0.1l0.1-0.1c0.1-0.1,0.2-0.3,0.4-0.6c0.2-0.2,0.2-0.3,0.2-0.4c0.2-0.2,0.2-0.3,0.2-0.4c0.8-1.3,1.8-3.2,2.9-5.5
	c0.1-0.2,0.2-0.5,0.5-1.1c0.2-0.6,0.4-1,0.6-1.4c0.1-0.3,0.3-0.7,0.6-1.1c0.3-0.4,0.6-0.6,0.8-0.7c0.6-0.2,1.2-0.4,2-0.4
	c0.7,0,1.7,0,2.9,0.1c1.2,0.1,2,0.1,2.5,0.1c0.2,0,0.7,0,1.4-0.1c0.7,0,1.2-0.1,1.7-0.1c0.5,0,1,0,1.6,0.1c0.6,0.1,1,0.2,1.4,0.4
	c0.3,0.2,0.6,0.4,0.7,0.6c0.4,0.9-0.1,2.7-1.6,5.2c-0.3,0.6-2,2.7-4.9,6.5c-0.1,0-0.1,0.1-0.1,0.2l-0.1,0.1L57,28.2l-0.2,0.2v0.1
	l-0.1,0.1l-0.2,0.2L56,29.3c-1.7,2.4-2.6,4-2.5,4.9c0.1,0.7,0.9,1.8,2.5,3.4c2.7,2.6,4.7,4.7,5.9,6.2C63.4,45.6,64.1,46.9,64,47.9z"
	/>
</svg>
